<svg xmlns="http://www.w3.org/2000/svg" width="27.56cm" height="29.21cm" viewBox="0 0 781.13 828.07">
  <defs>
    <style>
      .cls-1 {
        fill: #6f6f6f;
      }

      .cls-2 {
        fill: #fff;
        stroke: #6f6f6f;
      }

      .cls-2, .cls-3 {
        stroke-miterlimit: 10;
      }

      .cls-3 {
        fill: none;
        stroke: #000;
        stroke-width: 10px;
      }

      .cls-4 {
        fill: #500000;
      }

      .cls-5 {
        fill: #7a0000;
      }

      .cls-6 {
        fill: #a31b18;
      }
    </style>
  </defs>
  <title>logo</title>
  <g id="fond_sombre" data-name="fond sombre">
    <g id="Calque_19" data-name="Calque 19">
      <path class="cls-1" d="M96.8,659.27V238.67c0-12,25.85-116.46,140.77-105.76C353.75,141.11,351,276.44,351,276.44l-.44.19h28.12s4.82-159.71-150-175.84c0,0-131.19-4.3-159.69,133.9l1.72,424.58Z"/>
    </g>
    <g id="Calque_20" data-name="Calque 20">
      <path id="grande_six" data-name="grande six" class="cls-1" d="M291.83,402.34l21.78-20.95,30.86,13.09-6.85,33.83S353,439.2,364,454.12l28.88-6.77,18.57,26.7-20.11,26.37s8.17,18,10.05,37l29.15,6.75v34.28l-28.66,8.81s-1.51,20.21-9.82,38.62l19.91,20.37-16.48,30.1-28.7-5.8s-10.73,15.5-26.18,26.9l5.19,29.94-25.89,17L295,724.62s-23.1,9-39.09,10.56l-8.17,32.55H215L204,735s-21-2-39.64-11.15L142.56,745l-29.29-17.54,6.6-30.59s-22.33-18.27-27.15-28.52L64.63,673l-16-25.92,20.66-20.79S58.93,599.89,59,584.61l-31.28-8.74v-30.1l32.3-9.45s3.43-26.19,10.8-38.21L48.67,474.83l19.36-28,28.58,8.08S108.32,439.6,122,429.58l-3.78-33.53,25.63-14.66,25.71,20.87a122.33,122.33,0,0,1,39.56-9.77l6.65-26H248l9.15,26.72S275.38,395.11,291.83,402.34Z"/>
      <path id="zero_grande" data-name="zero grande" class="cls-1" d="M593.84,422.47,607.2,401l27.69,4.29,1.38,28.82s14.66,5.69,26.64,15.53l22-11.41,20.51,17.84-10.9,25.49s10.31,12.89,15.73,28l25-.5,7,27.79-21.42,13s2.91,16.69-.06,33.31l20.31,12.43-7.19,27.77-24.45,1.18a108.43,108.43,0,0,1-15.7,27.16l10.33,23.2L686.62,694l-24.25-11s-16.88,12-29.52,16.56l0,28-26.5,6.69L590.73,710s-17.42,2.66-34.41-.92L543,730.7l-27.33-8.21-.92-26.14s-21.84-10.24-27.84-17.56l-21.82,9.54-18.23-17.74,12.49-21.08s-13.83-19.24-16.88-31.65l-27.15-.68-6.16-24.4,24.24-14.26s-2.58-21.94.93-33.19L411.62,531l9.95-26.66,24.82.7s6.36-14.81,15.41-25.74l-9.93-26.39,17.77-17.13,25.11,11.65a102.25,102.25,0,0,1,30.06-16l.06-22.45,26.07-6.59,12.89,19.78S579,420,593.84,422.47Z"/>
    </g>
    <g id="horloge-2" data-name="horloge">
      <circle class="cls-2" cx="577.75" cy="566.46" r="120.01"/>
      <polyline class="cls-3" points="579.95 685.36 579.86 564.52 674.95 496.07"/>
      <line class="cls-3" x1="579.86" y1="564.52" x2="481.3" y2="495.03"/>
      <polyline class="cls-3" points="579.95 446.47 579.86 564.52 675.18 636.53"/>
      <line class="cls-3" x1="579.86" y1="564.52" x2="480.49" y2="636.78"/>
      <circle class="cls-4" cx="579.86" cy="564.52" r="19.55"/>
      <circle cx="579.86" cy="564.52" r="9.3"/>
      <path id="zero_petite" data-name="zero petite" class="cls-5" d="M594.7,597.81c-7.11,3.08-11.75,3-11.75,3l-.27,7.52-7.85-.28.26-7.23c-9.88-1.48-13.28-4.35-13.28-4.35l-4.73,6.12-5-3.56,3.37-6.87a36.22,36.22,0,0,1-7.86-9.19l-7.06,3.28-3.27-5.06,7.24-4.64c-2.6-7.6-2.22-11.44-2.22-11.44l-8.84-.32.22-6.11,9-.45a26.86,26.86,0,0,1,3.37-10.65l-7.42-4.72,4.56-5.82L550.3,541a30.48,30.48,0,0,1,7.63-7.21L555.51,526l5.49-2.31,4,6.13c4.66-2.37,12.6-3,12.6-3l.25-6.87,6.93.25-.21,7.05c4.93.34,12.49,4,12.49,4l3.6-6.1,6.3,2.73-3.76,7.44c4.07,2.89,7.65,8.47,7.65,8.47l8.76-4.24,2.8,5.37L614,549.65c2.39,2.71,2.75,11.2,2.75,11.2l9.7.87-.23,6.26-9.52-.34c-.18,4.46-2.9,11.06-2.9,11.06L621.3,584,618,589.13l-8.13-3.52c-2.57,4.06-8.27,8.24-8.27,8.24l3.33,6.58-6.33,3.28-3.88-5.9-4.36-7.53c9.69-4.21,17.29-14.17,17.7-25.34a28.48,28.48,0,1,0-29.48,27.13c4.43.16,8-.14,11.78-1.79Z"/>
      <circle class="cls-2" cx="230.23" cy="563.89" r="145.67"/>
      <path id="petite_six" data-name="petite six" class="cls-6" d="M244.17,527l4.88-4.69,6.91,2.93-1.53,7.57a30,30,0,0,1,5.9,5.78l6.47-1.51,4.15,6-4.5,5.9a30.09,30.09,0,0,1,2.25,8.3l6.53,1.51v7.68l-6.42,2a29.28,29.28,0,0,1-2.2,8.65l4.46,4.56-3.69,6.74-6.43-1.3a28.94,28.94,0,0,1-5.86,6l1.16,6.71-5.8,3.81-5.58-4.44a42.67,42.67,0,0,1-8.75,2.37l-1.83,7.29H227l-2.48-7.34a29.28,29.28,0,0,1-8.88-2.5l-4.87,4.74-6.56-3.93,1.48-6.85s-5-4.09-6.08-6.39l-6.29,1.05-3.57-5.81,4.62-4.65s-2.33-5.91-2.3-9.33l-7-2v-6.74l7.23-2.12s.77-5.86,2.42-8.56l-5-5.21,4.33-6.27,6.4,1.81a33.06,33.06,0,0,1,5.69-5.67l-.84-7.51L211,522.3l5.75,4.67a27.51,27.51,0,0,1,8.86-2.19l1.49-5.83h7.21l2.05,6A29.74,29.74,0,0,1,244.17,527Z"/>
      <circle class="cls-5" cx="230.23" cy="563.89" r="31.17"/>
      <circle class="cls-4" cx="230.23" cy="563.89" r="20"/>
      <circle cx="230.23" cy="563.89" r="9.08"/>
    </g>
    <g id="heures-2" data-name="heures">
      <path id="un" d="M284.21,478l-.59.92-6.22-4L278,474l.4.26a1.12,1.12,0,0,0,1.16,0,3.58,3.58,0,0,0,1.11-1,32.26,32.26,0,0,0,2.1-3l14.12-22a35.07,35.07,0,0,0,2-3.27,3.56,3.56,0,0,0,.33-1.37,1.07,1.07,0,0,0-.49-1l-.39-.25.59-.91,6.22,4-.59.91-.39-.25a1.14,1.14,0,0,0-1.17,0,3.86,3.86,0,0,0-1.12,1,33,33,0,0,0-2.09,3.05l-14.12,22a35.07,35.07,0,0,0-2,3.27,3.38,3.38,0,0,0-.32,1.38,1.06,1.06,0,0,0,.48,1Z"/>
      <g id="deux-2" data-name="deux">
        <path d="M318.52,513l-.94.54-3.68-6.41.94-.54.24.41a1.11,1.11,0,0,0,1,.55,3.61,3.61,0,0,0,1.43-.34,34.17,34.17,0,0,0,3.26-1.74l22.7-13a37.91,37.91,0,0,0,3.25-2,3.59,3.59,0,0,0,.93-1.07,1.06,1.06,0,0,0,0-1.1l-.23-.41.94-.54,3.68,6.42-.94.54-.23-.41a1.12,1.12,0,0,0-1-.55,3.82,3.82,0,0,0-1.44.33,30.79,30.79,0,0,0-3.26,1.74l-22.69,13a33.9,33.9,0,0,0-3.25,2,3.72,3.72,0,0,0-.93,1.07,1.08,1.08,0,0,0,0,1.11Z"/>
        <path d="M322.1,519.27l-.94.54-3.68-6.41.95-.54.23.41a1.13,1.13,0,0,0,1,.55,3.68,3.68,0,0,0,1.43-.34,35.51,35.51,0,0,0,3.26-1.74l22.69-13a36.24,36.24,0,0,0,3.25-2,3.33,3.33,0,0,0,.93-1.07,1.06,1.06,0,0,0,0-1.1l-.24-.41.95-.54,3.67,6.42-.94.54-.23-.41a1.12,1.12,0,0,0-1-.55,3.78,3.78,0,0,0-1.43.33,29.53,29.53,0,0,0-3.27,1.74l-22.69,13a35.36,35.36,0,0,0-3.25,2,3.53,3.53,0,0,0-.92,1.07,1.06,1.06,0,0,0,0,1.11Z"/>
      </g>
      <g id="trois-2" data-name="trois">
        <path d="M332.48,561.46H331.4l-.09-7.39,1.09,0v.47a1.16,1.16,0,0,0,.63,1,3.69,3.69,0,0,0,1.41.4,34.83,34.83,0,0,0,3.7.07l26.16-.3a32.91,32.91,0,0,0,3.81-.16,3.46,3.46,0,0,0,1.33-.48,1,1,0,0,0,.56-.95v-.47h1.08l.09,7.4h-1.09v-.47a1.16,1.16,0,0,0-.63-1,4.05,4.05,0,0,0-1.41-.41,34.83,34.83,0,0,0-3.7-.07l-26.16.3a35.72,35.72,0,0,0-3.81.16A3.64,3.64,0,0,0,333,560a1,1,0,0,0-.56,1Z"/>
        <path d="M332.42,568.13h-1.08l0-7.4h1.09v.47a1.1,1.1,0,0,0,.61,1,3.69,3.69,0,0,0,1.4.42,32.37,32.37,0,0,0,3.7.14l26.16.12a34,34,0,0,0,3.81-.1,3.48,3.48,0,0,0,1.34-.45,1.11,1.11,0,0,0,.58-1v-.46h1.08l0,7.39H370v-.47a1.13,1.13,0,0,0-.62-1,3.64,3.64,0,0,0-1.4-.44,33.44,33.44,0,0,0-3.7-.13l-26.16-.12a34,34,0,0,0-3.81.1,3.66,3.66,0,0,0-1.34.46,1.06,1.06,0,0,0-.57.94Z"/>
        <path d="M332.43,575.37h-1.09l0-7.39h1.09v.47a1.13,1.13,0,0,0,.62,1,3.49,3.49,0,0,0,1.4.43,36.37,36.37,0,0,0,3.7.13l26.16.1a34,34,0,0,0,3.81-.1,3.49,3.49,0,0,0,1.34-.46,1.05,1.05,0,0,0,.57-.94v-.47h1.08l0,7.39H370v-.47a1.15,1.15,0,0,0-.61-1,4,4,0,0,0-1.41-.43,33.44,33.44,0,0,0-3.7-.13l-26.16-.1a34,34,0,0,0-3.81.1A3.73,3.73,0,0,0,333,574a1.08,1.08,0,0,0-.57.95Z"/>
      </g>
      <g id="quatre">
        <path d="M314.5,618.38l29.09,10.31a40.06,40.06,0,0,0,6.88,2,2.75,2.75,0,0,0,2.08-.53l1.28.84-6.22,9.48c-.29-.22-1.23-.83-1.23-.83a4.06,4.06,0,0,0,.38-.57,3.09,3.09,0,0,0-.31-3.14A7.9,7.9,0,0,0,343,633.6c-6.86-3-14-5.54-21-8.22l3.43,4,8.9,9.27a39.37,39.37,0,0,0,5.69,5.2,3.72,3.72,0,0,0,2,.71,2.22,2.22,0,0,0,1.76-1.06l1.28.84-3.91,6-1.28-.84a2.68,2.68,0,0,0-.22-2.15A34.54,34.54,0,0,0,335.3,642L313.9,619.3Z"/>
        <path d="M356.68,624.39l.92.58-4,6.26-.92-.58.25-.4a1.12,1.12,0,0,0,0-1.17,3.64,3.64,0,0,0-1-1.1,31.75,31.75,0,0,0-3.06-2.07l-22.13-14a36.41,36.41,0,0,0-3.28-1.94,3.73,3.73,0,0,0-1.38-.32,1.08,1.08,0,0,0-1,.5l-.25.39L320,610l3.94-6.25.92.58-.25.4a1.12,1.12,0,0,0,0,1.16,4,4,0,0,0,1,1.12,34.87,34.87,0,0,0,3.07,2.06l22.12,14a34.91,34.91,0,0,0,3.29,1.93,3.53,3.53,0,0,0,1.38.31,1,1,0,0,0,1-.49Z"/>
      </g>
      <path id="cinq" d="M282.68,652.9l21.93,21.72a39.65,39.65,0,0,0,5.35,4.77,2.81,2.81,0,0,0,2.11.41l.8,1.3L303.2,687c-.16-.33-.75-1.28-.75-1.28a4.17,4.17,0,0,0,.58-.35,3.11,3.11,0,0,0,1.07-3,7.93,7.93,0,0,0-2.11-3.6c-4.91-5.68-10.27-11-15.46-16.38l1.41,5,4.1,12.18a40.31,40.31,0,0,0,2.93,7.13,3.79,3.79,0,0,0,1.54,1.5,2.18,2.18,0,0,0,2-.21l.8,1.31-6.07,3.72-.8-1.3a2.7,2.7,0,0,0,.71-2,35,35,0,0,0-1.77-6.63l-9.67-29.67Z"/>
      <g id="six">
        <path d="M237,665.44l7.29,30a39.73,39.73,0,0,0,2.06,6.86,2.77,2.77,0,0,0,1.58,1.45v1.53H236.6c0-.37,0-1.49,0-1.49a3.8,3.8,0,0,0,.68,0,3.11,3.11,0,0,0,2.47-2,8,8,0,0,0,.09-4.17c-1.21-7.41-3-14.72-4.59-22l-1.44,5L231,693.13a40.44,40.44,0,0,0-1.25,7.61,3.79,3.79,0,0,0,.53,2.09,2.2,2.2,0,0,0,1.85.89v1.53H225v-1.53a2.69,2.69,0,0,0,1.68-1.36,35.21,35.21,0,0,0,2-6.57l7.31-30.34Z"/>
        <path d="M226.29,704.16v1.08H218.9v-1.08h.47a1.13,1.13,0,0,0,1-.62,3.55,3.55,0,0,0,.41-1.41,31.82,31.82,0,0,0,.12-3.69V672.27a34.55,34.55,0,0,0-.12-3.81,3.44,3.44,0,0,0-.46-1.33,1.05,1.05,0,0,0-.94-.58h-.47v-1.08h7.39v1.08h-.47a1.13,1.13,0,0,0-1,.62,3.85,3.85,0,0,0-.43,1.41,35.69,35.69,0,0,0-.11,3.69v26.17a34.55,34.55,0,0,0,.12,3.81,3.45,3.45,0,0,0,.47,1.33,1.07,1.07,0,0,0,.94.58Z"/>
      </g>
      <g id="sept">
        <path d="M188.86,656.88l-7.62,29.91a40.19,40.19,0,0,0-1.39,7,2.79,2.79,0,0,0,.71,2l-.71,1.35-10-5.33c.19-.31.72-1.3.72-1.3a4.5,4.5,0,0,0,.59.33,3.12,3.12,0,0,0,3.11-.59,8,8,0,0,0,2-3.65c2.4-7.11,4.24-14.41,6.28-21.63L179,668.8l-8.42,9.71a40,40,0,0,0-4.66,6.14,3.85,3.85,0,0,0-.52,2.09,2.2,2.2,0,0,0,1.22,1.65l-.72,1.36-6.29-3.35.72-1.35a2.71,2.71,0,0,0,2.12-.42,34.8,34.8,0,0,0,4.82-4.88l20.67-23.38Z"/>
        <path d="M161,685.88l-.53,1L154,683.24l.53-1,.41.23a1.11,1.11,0,0,0,1.16-.06,3.51,3.51,0,0,0,1-1,30.55,30.55,0,0,0,1.89-3.17l12.69-22.88a35.79,35.79,0,0,0,1.75-3.39,3.56,3.56,0,0,0,.24-1.4,1.05,1.05,0,0,0-.55-1l-.41-.23.53-.95,6.47,3.58-.53,1-.41-.22a1.15,1.15,0,0,0-1.17.05,3.92,3.92,0,0,0-1,1,31.81,31.81,0,0,0-1.9,3.17L162,679.9a34.24,34.24,0,0,0-1.75,3.4,3.69,3.69,0,0,0-.23,1.39,1.07,1.07,0,0,0,.54,1Z"/>
        <path d="M155.05,682.57l-.53.94-6.46-3.58.52-.95.41.23a1.13,1.13,0,0,0,1.17-.06,3.63,3.63,0,0,0,1-1,31.21,31.21,0,0,0,1.9-3.18l12.68-22.88a33.4,33.4,0,0,0,1.75-3.39,3.49,3.49,0,0,0,.24-1.39,1.07,1.07,0,0,0-.54-1l-.41-.22.52-1,6.47,3.58-.53.95-.41-.23a1.13,1.13,0,0,0-1.16.06,3.77,3.77,0,0,0-1.06,1,32.6,32.6,0,0,0-1.89,3.17l-12.69,22.88a31.16,31.16,0,0,0-1.74,3.4,3.49,3.49,0,0,0-.24,1.39,1.06,1.06,0,0,0,.55,1Z"/>
      </g>
      <g id="huit">
        <path d="M152.88,628.92,131.29,651a41,41,0,0,0-4.74,5.38,2.76,2.76,0,0,0-.39,2.11l-1.3.81-6-9.63c.33-.17,1.28-.76,1.28-.76a3.72,3.72,0,0,0,.35.58,3.08,3.08,0,0,0,3,1,7.92,7.92,0,0,0,3.59-2.12c5.65-5,10.91-10.34,16.29-15.56l-5,1.44-12.15,4.18a40.35,40.35,0,0,0-7.12,3,3.77,3.77,0,0,0-1.49,1.55,2.19,2.19,0,0,0,.22,2l-1.3.81-3.76-6,1.3-.81a2.65,2.65,0,0,0,2,.7,34.22,34.22,0,0,0,6.62-1.8L152.3,628Z"/>
        <path d="M142.08,613.49l.92-.57,3.89,6.29-.92.57-.25-.4a1.12,1.12,0,0,0-1-.52,3.66,3.66,0,0,0-1.42.39,32.58,32.58,0,0,0-3.2,1.84l-22.25,13.77a36.45,36.45,0,0,0-3.18,2.1,3.51,3.51,0,0,0-.89,1.1,1.06,1.06,0,0,0,0,1.1l.24.4-.92.57-3.89-6.29.92-.57.25.4a1.14,1.14,0,0,0,1.05.52,3.83,3.83,0,0,0,1.42-.38A32.35,32.35,0,0,0,116,632l22.25-13.76a33.38,33.38,0,0,0,3.18-2.11,3.51,3.51,0,0,0,.89-1.1,1.06,1.06,0,0,0,0-1.1Z"/>
        <path d="M138.69,607.74l.93-.55,3.79,6.35-.93.55-.24-.4a1.12,1.12,0,0,0-1-.53,3.5,3.5,0,0,0-1.42.36,31.85,31.85,0,0,0-3.24,1.79l-22.47,13.4a37.54,37.54,0,0,0-3.21,2.06,3.41,3.41,0,0,0-.91,1.08,1.06,1.06,0,0,0,0,1.1l.24.4-.93.56-3.79-6.35.94-.56.24.41a1.11,1.11,0,0,0,1,.53,3.66,3.66,0,0,0,1.43-.35,33.2,33.2,0,0,0,3.23-1.8l22.47-13.4a35.11,35.11,0,0,0,3.22-2,3.66,3.66,0,0,0,.9-1.09,1.06,1.06,0,0,0,0-1.1Z"/>
        <path d="M135,601.54l.93-.55,3.79,6.34-.93.56-.24-.4a1.13,1.13,0,0,0-1-.54,3.73,3.73,0,0,0-1.42.37,32.18,32.18,0,0,0-3.23,1.79l-22.46,13.42a37.6,37.6,0,0,0-3.22,2.05,3.52,3.52,0,0,0-.9,1.09,1,1,0,0,0,0,1.1l.24.4-.93.56-3.79-6.35.93-.55.24.4a1.11,1.11,0,0,0,1,.53,3.66,3.66,0,0,0,1.43-.35,35.73,35.73,0,0,0,3.23-1.8l22.46-13.42a35.11,35.11,0,0,0,3.22-2.05,3.79,3.79,0,0,0,.9-1.09,1.08,1.08,0,0,0,0-1.11Z"/>
      </g>
      <g id="neuf-2" data-name="neuf">
        <path d="M105.75,559.14,122,555.25a37.63,37.63,0,0,0,4.91-1.38,1.76,1.76,0,0,0,1-1h1.09v6.89H128a1.38,1.38,0,0,0-.7-1.06,3.1,3.1,0,0,0-1.29-.24,5.3,5.3,0,0,0-.94.07c-.59.1-1.68.34-3.29.73l-8.59,2.07,7.42,2.16a21,21,0,0,0,4.58,1,5.08,5.08,0,0,0,1.58-.25,2,2,0,0,0,1.06-.74,1.66,1.66,0,0,0,.17-.9h1.09V568H128a2.85,2.85,0,0,0-1.41-1.46,39.37,39.37,0,0,0-5.63-1.95l-9.62-2.81-14.87,3.6c-2.44.59-3.8.93-4.08,1A5.5,5.5,0,0,0,91,567a1.72,1.72,0,0,0-.62.76H89.3v-7h1.08v.35a.86.86,0,0,0,.54.85,3.43,3.43,0,0,0,1.37.24,7,7,0,0,0,1.11-.08l3-.72,7.51-1.75-5.13-1.49A24.13,24.13,0,0,0,93.29,557a6.76,6.76,0,0,0-1.47.16,2.82,2.82,0,0,0-1.06.47,1.13,1.13,0,0,0-.38.94H89.3v-5.21h1.08a1.38,1.38,0,0,0,.43,1,4.83,4.83,0,0,0,1.48.81c.47.18,1.92.63,4.37,1.35Z"/>
        <path d="M128,567.47h1.09v7.39H128v-.47a1.12,1.12,0,0,0-.61-1A3.82,3.82,0,0,0,126,573a35.8,35.8,0,0,0-3.7-.11H96.1a34.55,34.55,0,0,0-3.81.12,3.49,3.49,0,0,0-1.34.46,1.08,1.08,0,0,0-.57.95v.47H89.3v-7.4h1.08v.47a1.13,1.13,0,0,0,.62,1,3.85,3.85,0,0,0,1.41.43,32.73,32.73,0,0,0,3.69.11h26.16a34.65,34.65,0,0,0,3.82-.12,3.69,3.69,0,0,0,1.33-.47,1.06,1.06,0,0,0,.57-.94Z"/>
      </g>
      <path id="dix" d="M123.94,502.81,140.16,507a36.34,36.34,0,0,0,5,1.07,1.81,1.81,0,0,0,1.38-.38l.95.51-3.21,6.1-1-.51a1.38,1.38,0,0,0-.13-1.27,2.9,2.9,0,0,0-1-.81,5.55,5.55,0,0,0-.86-.38c-.57-.19-1.65-.48-3.25-.88l-8.56-2.19,5.55,5.37a21.2,21.2,0,0,0,3.6,3,5,5,0,0,0,1.52.51,2,2,0,0,0,1.28-.16,1.53,1.53,0,0,0,.57-.71l1,.51-2.53,4.8-1-.5a2.89,2.89,0,0,0-.57-1.95,38.08,38.08,0,0,0-4.07-4.35l-7.2-7L112.8,504c-2.44-.62-3.8-.95-4.08-1a5.71,5.71,0,0,0-1.48-.15,1.64,1.64,0,0,0-.89.38l-1-.51,3.27-6.21,1,.51-.16.31a.86.86,0,0,0,.08,1,3.33,3.33,0,0,0,1.1.85,8.45,8.45,0,0,0,1,.46l3,.78,7.46,2-3.84-3.72a23.75,23.75,0,0,0-4.37-3.6,7.19,7.19,0,0,0-1.37-.54,2.81,2.81,0,0,0-1.16-.08,1.15,1.15,0,0,0-.77.65l-1-.51,2.43-4.6,1,.51a1.35,1.35,0,0,0-.09,1.07,4.86,4.86,0,0,0,.94,1.4q.49.57,3.23,3.24Z"/>
      <g id="onze-2" data-name="onze">
        <path d="M164.52,459.07l10.78,12.8a35.57,35.57,0,0,0,3.44,3.77,1.79,1.79,0,0,0,1.34.5l.49,1-6.16,3.09-.49-1a1.4,1.4,0,0,0,.64-1.11,3.23,3.23,0,0,0-.37-1.26,5.28,5.28,0,0,0-.49-.8c-.35-.48-1-1.35-2.12-2.61l-5.7-6.76,1.4,7.6a20.81,20.81,0,0,0,1.18,4.53,5,5,0,0,0,.94,1.3,1.93,1.93,0,0,0,1.13.61,1.53,1.53,0,0,0,.88-.24l.49,1L167,483.89l-.48-1a2.85,2.85,0,0,0,.67-1.91,39.18,39.18,0,0,0-.78-5.91l-1.81-9.85-9.89-11.68c-1.62-1.92-2.53-3-2.73-3.19a5.54,5.54,0,0,0-1.11-1,1.61,1.61,0,0,0-.95-.22l-.48-1,6.27-3.15.48,1-.31.16a.85.85,0,0,0-.51.87,3.47,3.47,0,0,0,.39,1.32,8.63,8.63,0,0,0,.57,1l2,2.4,4.93,5.93-1-5.26a23.42,23.42,0,0,0-1.46-5.47,6.15,6.15,0,0,0-.8-1.24,2.61,2.61,0,0,0-.89-.73,1.12,1.12,0,0,0-1,.08l-.48-1,4.65-2.34.48,1a1.4,1.4,0,0,0-.69.83,4.76,4.76,0,0,0,0,1.68c0,.5.29,2,.74,4.52Z"/>
        <path d="M185.79,473.27l.49,1-6.61,3.32-.49-1,.42-.21a1.14,1.14,0,0,0,.61-1,3.66,3.66,0,0,0-.26-1.44,32.31,32.31,0,0,0-1.55-3.36L166.66,447.2a34.86,34.86,0,0,0-1.81-3.36,3.47,3.47,0,0,0-1-1,1.05,1.05,0,0,0-1.1-.09l-.42.21-.49-1,6.61-3.32.49,1-.42.21a1.14,1.14,0,0,0-.61,1,3.65,3.65,0,0,0,.25,1.45,33.64,33.64,0,0,0,1.55,3.35l11.74,23.39a35.52,35.52,0,0,0,1.81,3.35,3.5,3.5,0,0,0,1,1,1.05,1.05,0,0,0,1.1.09Z"/>
      </g>
      <g id="douze">
        <path d="M223.18,441.71l3.9,16.28a34,34,0,0,0,1.38,4.91,1.75,1.75,0,0,0,1,1V465h-6.89v-1.09a1.38,1.38,0,0,0,1.07-.7,3.1,3.1,0,0,0,.24-1.29,5.23,5.23,0,0,0-.08-.94c-.1-.59-.34-1.68-.73-3.28l-2.06-8.6-2.16,7.42a20.5,20.5,0,0,0-1,4.58,4.8,4.8,0,0,0,.25,1.58,2,2,0,0,0,.74,1.06,1.63,1.63,0,0,0,.9.17V465H214.3v-1.09a2.83,2.83,0,0,0,1.46-1.4,37.18,37.18,0,0,0,2-5.64l2.81-9.62-3.6-14.87c-.59-2.44-.93-3.8-1-4.07a5.44,5.44,0,0,0-.55-1.38,1.64,1.64,0,0,0-.75-.62v-1.08h7v1.08h-.35a.86.86,0,0,0-.85.55,3.35,3.35,0,0,0-.24,1.36,7,7,0,0,0,.08,1.11l.72,3.05,1.75,7.51,1.49-5.13a23.58,23.58,0,0,0,1.15-5.54,6.76,6.76,0,0,0-.16-1.47,2.82,2.82,0,0,0-.47-1.06,1.13,1.13,0,0,0-.94-.38v-1.08H229v1.08a1.38,1.38,0,0,0-1,.43,5,5,0,0,0-.81,1.48c-.18.47-.63,1.93-1.35,4.37Z"/>
        <path d="M236.17,463.94V465h-7.4v-1.09h.47a1.12,1.12,0,0,0,1-.61,3.63,3.63,0,0,0,.42-1.41,31.92,31.92,0,0,0,.12-3.7V432.06a34.55,34.55,0,0,0-.12-3.81,3.55,3.55,0,0,0-.46-1.34,1.08,1.08,0,0,0-.95-.57h-.47v-1.08h7.4v1.08h-.47a1.13,1.13,0,0,0-1,.62,3.66,3.66,0,0,0-.43,1.41,32.85,32.85,0,0,0-.11,3.69v26.16a34.65,34.65,0,0,0,.12,3.82,3.45,3.45,0,0,0,.47,1.33,1.05,1.05,0,0,0,.94.57Z"/>
        <path d="M243.25,463.94V465h-7.4v-1.09h.47a1.12,1.12,0,0,0,1-.61,3.82,3.82,0,0,0,.42-1.41,33,33,0,0,0,.11-3.7V432.06a35.65,35.65,0,0,0-.11-3.81,3.73,3.73,0,0,0-.46-1.34,1.08,1.08,0,0,0-1-.57h-.47v-1.08h7.4v1.08h-.47a1.13,1.13,0,0,0-1,.62,3.66,3.66,0,0,0-.43,1.41,31.82,31.82,0,0,0-.12,3.69v26.16a34.65,34.65,0,0,0,.12,3.82,3.62,3.62,0,0,0,.47,1.33,1.08,1.08,0,0,0,.95.57Z"/>
      </g>
    </g>
    <g id="aiguilles">
      <polygon id="grande" points="230.07 566.95 221.44 547.26 230.12 423.77 239.02 546.25 230.07 566.95"/>
      <polygon id="petite" points="230.23 566.83 249.91 558.17 339.06 566.7 250.95 575.74 230.23 566.83"/>
    </g>
    <polygon id="minute" class="cls-1" points="672.34 273.99 687.86 289.79 670.92 387.52 655.88 290.21 672.34 273.99"/>
  </g>
</svg>
