<?xml version="1.0" encoding="utf-8"?>
<!-- Generator: Adobe Illustrator 23.0.3, SVG Export Plug-In . SVG Version: 6.00 Build 0)  -->
<svg version="1.1" xmlns="http://www.w3.org/2000/svg" xmlns:xlink="http://www.w3.org/1999/xlink" x="0px" y="0px"
	 viewBox="0 0 781.1 766.9" style="enable-background:new 0 0 781.1 766.9;" xml:space="preserve">
<style type="text/css">
	.st0{stroke:#000000;stroke-miterlimit:10;}
	.st1{fill:#575757;}
	.st2{fill:#FFFFFF;stroke:#000000;stroke-width:2;stroke-miterlimit:10;}
	.st3{fill:#500000;}
	.st4{fill:#A31B18;}
	.st5{fill:#6F6F6F;}
	.st6{fill:#7A0000;}
	.st7{fill:#FFFFFF;stroke:#000000;stroke-miterlimit:10;}
	.st8{fill:none;stroke:#575757;stroke-width:10;stroke-miterlimit:10;}
	.st9{fill:#FFFFFF;stroke:#6F6F6F;stroke-miterlimit:10;}
	.st10{fill:none;stroke:#000000;stroke-width:10;stroke-miterlimit:10;}
</style>
<g id="couleurs">
</g>
<g id="fond_claire">
	<polygon id="minute_1_" points="672.3,212.8 687.9,228.6 670.9,326.4 655.9,229.1 	"/>
	<g id="Calque_10">
		<path d="M96.8,598.1c0,0,0-408.6,0-420.6c0-12,25.9-116.5,140.8-105.8C353.8,79.9,351,215.3,351,215.3l-0.4,0.2h28.1
			c0,0,4.8-159.7-150-175.8c0,0-131.2-4.3-159.7,133.9l1.7,424.6H96.8z"/>
	</g>
	<g id="Engrenage">
		<path id="grande_six_1_" d="M291.8,341.2l21.8-21l30.9,13.1l-6.8,33.8c0,0,15.3,10.9,26.3,25.8l28.9-6.8l18.6,26.7l-20.1,26.4
			c0,0,8.2,18,10.1,37l29.2,6.7v34.3l-28.7,8.8c0,0-1.5,20.2-9.8,38.6l19.9,20.4l-16.5,30.1l-28.7-5.8c0,0-10.7,15.5-26.2,26.9
			l5.2,29.9l-25.9,17L295,663.5c0,0-23.1,9-39.1,10.6l-8.2,32.5H215l-11.1-32.8c0,0-21-2-39.6-11.1l-21.7,21.1l-29.3-17.5l6.6-30.6
			c0,0-22.3-18.3-27.1-28.5l-28.1,4.7l-16-25.9l20.7-20.8c0,0-10.4-26.4-10.3-41.7l-31.3-8.7v-30.1l32.3-9.4c0,0,3.4-26.2,10.8-38.2
			l-22.2-23.3l19.4-28l28.6,8.1c0,0,11.7-15.3,25.4-25.3l-3.8-33.5l25.6-14.7l25.7,20.9c0,0,18.1-8.5,39.6-9.8l6.7-26H248l9.2,26.7
			C257.1,332,275.4,333.9,291.8,341.2z"/>
		<path id="zero_grande_1_" d="M593.8,361.3l13.4-21.4l27.7,4.3l1.4,28.8c0,0,14.7,5.7,26.6,15.5l22-11.4l20.5,17.8l-10.9,25.5
			c0,0,10.3,12.9,15.7,28l25-0.5l7,27.8l-21.4,13c0,0,2.9,16.7-0.1,33.3l20.3,12.4l-7.2,27.8l-24.5,1.2c0,0-5.5,14.8-15.7,27.2
			l10.3,23.2l-17.5,19.1l-24.3-11c0,0-16.9,12-29.5,16.6l0,28.1l-26.5,6.7l-15.7-24.3c0,0-17.4,2.7-34.4-0.9L543,669.5l-27.3-8.2
			l-0.9-26.1c0,0-21.8-10.2-27.8-17.6l-21.8,9.5l-18.2-17.7l12.5-21.1c0,0-13.8-19.2-16.9-31.7l-27.1-0.7l-6.2-24.4l24.2-14.3
			c0,0-2.6-21.9,0.9-33.2l-22.7-14.3l9.9-26.7l24.8,0.7c0,0,6.4-14.8,15.4-25.7l-9.9-26.4l17.8-17.1l25.1,11.7
			c0,0,12.9-10.6,30.1-16l0.1-22.4l26.1-6.6l12.9,19.8C563.8,361,579,358.8,593.8,361.3z"/>
	</g>
	<g id="horloge">
		<circle class="st7" cx="230.2" cy="502.7" r="145.7"/>
		<g id="Calque_11">
			<path id="petite_six_1_" class="st4" d="M244.2,465.8l4.9-4.7l6.9,2.9l-1.5,7.6c0,0,3.4,2.4,5.9,5.8l6.5-1.5l4.2,6l-4.5,5.9
				c0,0,1.8,4,2.3,8.3l6.5,1.5v7.7l-6.4,2c0,0-0.3,4.5-2.2,8.6l4.5,4.6l-3.7,6.7l-6.4-1.3c0,0-2.4,3.5-5.9,6l1.2,6.7l-5.8,3.8
				l-5.6-4.4c0,0-5.2,2-8.8,2.4l-1.8,7.3H227l-2.5-7.3c0,0-4.7-0.5-8.9-2.5l-4.9,4.7l-6.6-3.9l1.5-6.9c0,0-5-4.1-6.1-6.4l-6.3,1
				l-3.6-5.8l4.6-4.7c0,0-2.3-5.9-2.3-9.3l-7-2v-6.7l7.2-2.1c0,0,0.8-5.9,2.4-8.6l-5-5.2l4.3-6.3l6.4,1.8c0,0,2.6-3.4,5.7-5.7
				l-0.8-7.5l5.7-3.3l5.8,4.7c0,0,4.1-1.9,8.9-2.2l1.5-5.8h7.2l2,6C236.4,463.8,240.5,464.2,244.2,465.8z"/>
		</g>
		<circle class="st6" cx="230.2" cy="502.7" r="31.2"/>
		<circle class="st3" cx="230.2" cy="502.7" r="20"/>
		<circle class="st1" cx="230.2" cy="502.7" r="9.1"/>
		<circle class="st7" cx="577.7" cy="505.3" r="120"/>
		<polyline class="st8" points="579.9,624.2 579.9,503.4 674.9,434.9 		"/>
		<line class="st8" x1="579.9" y1="503.4" x2="481.3" y2="433.9"/>
		<polyline class="st8" points="580,385.3 579.9,503.4 675.2,575.4 		"/>
		<line class="st8" x1="579.9" y1="503.4" x2="480.5" y2="575.6"/>
		<circle class="st3" cx="579.9" cy="503.4" r="19.5"/>
		<circle class="st1" cx="579.9" cy="503.4" r="9.3"/>
		<path id="zero_petite_1_" class="st6" d="M594.7,536.6c-7.1,3.1-11.7,3-11.7,3l-0.3,7.5l-7.9-0.3l0.3-7.2
			c-9.9-1.5-13.3-4.3-13.3-4.3l-4.7,6.1l-5-3.6l3.4-6.9c-5.7-5-7.9-9.2-7.9-9.2l-7.1,3.3l-3.3-5.1l7.2-4.6
			c-2.6-7.6-2.2-11.4-2.2-11.4l-8.8-0.3l0.2-6.1l9-0.4c0.4-5.8,3.4-10.6,3.4-10.6l-7.4-4.7l4.6-5.8l7.1,3.9c2.9-4.2,7.6-7.2,7.6-7.2
			l-2.4-7.8l5.5-2.3l4,6.1c4.7-2.4,12.6-3,12.6-3l0.2-6.9l6.9,0.3l-0.2,7.1c4.9,0.3,12.5,4,12.5,4l3.6-6.1l6.3,2.7l-3.8,7.4
			c4.1,2.9,7.6,8.5,7.6,8.5l8.8-4.2l2.8,5.4l-8.4,4.8c2.4,2.7,2.8,11.2,2.8,11.2l9.7,0.9l-0.2,6.3l-9.5-0.3
			c-0.2,4.5-2.9,11.1-2.9,11.1l7.5,5.3L618,528l-8.1-3.5c-2.6,4.1-8.3,8.2-8.3,8.2l3.3,6.6l-6.3,3.3L594.7,536.6l-4.4-7.5
			c9.7-4.2,17.3-14.2,17.7-25.3c0.6-15.5-11.7-28.6-27.4-29.2c-15.7-0.6-28.9,11.6-29.5,27.1c-0.6,15.5,11.7,28.6,27.4,29.2
			c4.4,0.2,8-0.1,11.8-1.8L594.7,536.6z"/>
	</g>
	<g id="heures">
		<g id="deux">
			<path d="M318.5,451.9l-0.9,0.5l-3.7-6.4l0.9-0.5l0.2,0.4c0.2,0.4,0.5,0.5,1,0.6c0.3,0,0.8-0.1,1.4-0.3c0.4-0.2,1.5-0.7,3.3-1.7
				l22.7-13c1.8-1,2.8-1.7,3.3-2c0.4-0.3,0.7-0.7,0.9-1.1c0.2-0.4,0.2-0.8,0-1.1l-0.2-0.4l0.9-0.5l3.7,6.4l-0.9,0.5l-0.2-0.4
				c-0.2-0.4-0.5-0.5-1-0.6c-0.3,0-0.8,0.1-1.4,0.3c-0.4,0.2-1.5,0.7-3.3,1.7l-22.7,13c-1.8,1-2.8,1.7-3.2,2
				c-0.4,0.3-0.7,0.7-0.9,1.1c-0.2,0.4-0.2,0.8,0,1.1L318.5,451.9z"/>
			<path d="M322.1,458.1l-0.9,0.5l-3.7-6.4l0.9-0.5l0.2,0.4c0.2,0.4,0.5,0.5,1,0.6c0.3,0,0.8-0.1,1.4-0.3c0.4-0.2,1.5-0.7,3.3-1.7
				l22.7-13c1.8-1,2.8-1.7,3.3-2c0.4-0.3,0.7-0.7,0.9-1.1c0.2-0.4,0.2-0.8,0-1.1L351,433l0.9-0.5l3.7,6.4l-0.9,0.5l-0.2-0.4
				c-0.2-0.4-0.5-0.5-1-0.6c-0.3,0-0.8,0.1-1.4,0.3c-0.4,0.2-1.5,0.7-3.3,1.7l-22.7,13c-1.8,1-2.8,1.7-3.2,2
				c-0.4,0.3-0.7,0.7-0.9,1.1c-0.2,0.4-0.2,0.8,0,1.1L322.1,458.1z"/>
		</g>
		<g id="trois">
			<path d="M332.5,500.3l-1.1,0l-0.1-7.4l1.1,0l0,0.5c0,0.4,0.2,0.7,0.6,1c0.3,0.2,0.7,0.3,1.4,0.4c0.5,0.1,1.7,0.1,3.7,0.1
				l26.2-0.3c2,0,3.3-0.1,3.8-0.2c0.5-0.1,1-0.2,1.3-0.5s0.6-0.6,0.6-1l0-0.5l1.1,0l0.1,7.4l-1.1,0l0-0.5c0-0.4-0.2-0.7-0.6-1
				c-0.3-0.2-0.7-0.3-1.4-0.4c-0.5-0.1-1.7-0.1-3.7-0.1l-26.2,0.3c-2,0-3.3,0.1-3.8,0.2c-0.5,0.1-1,0.2-1.3,0.5s-0.6,0.6-0.6,1
				L332.5,500.3z"/>
			<path d="M332.4,507l-1.1,0l0-7.4l1.1,0l0,0.5c0,0.4,0.2,0.7,0.6,1c0.3,0.2,0.7,0.3,1.4,0.4c0.5,0.1,1.7,0.1,3.7,0.1l26.2,0.1
				c2,0,3.3,0,3.8-0.1c0.5-0.1,1-0.2,1.3-0.5c0.4-0.2,0.6-0.5,0.6-0.9l0-0.5l1.1,0l0,7.4l-1.1,0l0-0.5c0-0.4-0.2-0.7-0.6-1
				c-0.3-0.2-0.7-0.3-1.4-0.4c-0.5-0.1-1.7-0.1-3.7-0.1l-26.2-0.1c-2,0-3.3,0-3.8,0.1s-1,0.2-1.3,0.5c-0.4,0.2-0.6,0.5-0.6,0.9
				L332.4,507z"/>
			<path d="M332.4,514.2l-1.1,0l0-7.4l1.1,0l0,0.5c0,0.4,0.2,0.7,0.6,1c0.3,0.2,0.7,0.3,1.4,0.4c0.5,0.1,1.7,0.1,3.7,0.1l26.2,0.1
				c2,0,3.3,0,3.8-0.1c0.5-0.1,1-0.2,1.3-0.5s0.6-0.5,0.6-0.9l0-0.5l1.1,0l0,7.4l-1.1,0l0-0.5c0-0.4-0.2-0.7-0.6-1
				c-0.3-0.2-0.7-0.3-1.4-0.4c-0.5-0.1-1.7-0.1-3.7-0.1l-26.2-0.1c-2,0-3.3,0-3.8,0.1c-0.5,0.1-1,0.2-1.3,0.5
				c-0.4,0.2-0.6,0.5-0.6,0.9L332.4,514.2z"/>
		</g>
		<g id="neuf">
			<path d="M164.5,397.9l10.8,12.8c1.8,2.1,2.9,3.4,3.4,3.8s1,0.6,1.3,0.5l0.5,1l-6.2,3.1l-0.5-1c0.4-0.4,0.6-0.7,0.6-1.1
				c0-0.4-0.1-0.8-0.4-1.3c-0.2-0.3-0.3-0.6-0.5-0.8c-0.4-0.5-1.1-1.4-2.1-2.6l-5.7-6.8l1.4,7.6c0.4,2.3,0.8,3.8,1.2,4.5
				c0.3,0.5,0.6,0.9,0.9,1.3s0.7,0.6,1.1,0.6c0.2,0,0.5,0,0.9-0.2l0.5,1l-4.9,2.4l-0.5-1c0.4-0.5,0.7-1.1,0.7-1.9c0-1-0.2-3-0.8-5.9
				l-1.8-9.9l-9.9-11.7c-1.6-1.9-2.5-3-2.7-3.2c-0.5-0.5-0.8-0.8-1.1-1c-0.3-0.2-0.6-0.2-0.9-0.2l-0.5-1l6.3-3.1l0.5,1l-0.3,0.2
				c-0.4,0.2-0.5,0.5-0.5,0.9c0,0.4,0.2,0.8,0.4,1.3c0.2,0.4,0.4,0.7,0.6,1l2,2.4l4.9,5.9l-1-5.3c-0.5-2.7-1-4.5-1.5-5.5
				c-0.2-0.5-0.5-0.9-0.8-1.2c-0.3-0.4-0.6-0.6-0.9-0.7s-0.6-0.1-1,0.1l-0.5-1l4.7-2.3l0.5,1c-0.4,0.2-0.6,0.5-0.7,0.8
				c-0.1,0.3-0.1,0.9-0.1,1.7c0,0.5,0.3,2,0.7,4.5L164.5,397.9z"/>
			<path d="M185.8,412.1l0.5,1l-6.6,3.3l-0.5-1l0.4-0.2c0.4-0.2,0.6-0.5,0.6-1c0-0.3,0-0.8-0.3-1.4c-0.1-0.5-0.7-1.6-1.6-3.4
				L166.7,386c-0.9-1.8-1.5-2.9-1.8-3.4c-0.3-0.4-0.6-0.7-1-1c-0.4-0.2-0.7-0.3-1.1-0.1l-0.4,0.2l-0.5-1l6.6-3.3l0.5,1l-0.4,0.2
				c-0.4,0.2-0.6,0.5-0.6,1c0,0.3,0,0.8,0.2,1.5c0.1,0.5,0.7,1.6,1.6,3.4l11.7,23.4c0.9,1.8,1.5,2.9,1.8,3.4s0.6,0.7,1,1
				c0.4,0.2,0.7,0.3,1.1,0.1L185.8,412.1z"/>
		</g>
		<g id="onze">
			<path d="M105.8,498l16.3-3.9c2.7-0.6,4.3-1.1,4.9-1.4c0.6-0.3,0.9-0.6,1-1l1.1,0l0,6.9l-1.1,0c-0.1-0.5-0.4-0.9-0.7-1.1
				s-0.8-0.2-1.3-0.2c-0.4,0-0.7,0-0.9,0.1c-0.6,0.1-1.7,0.3-3.3,0.7l-8.6,2.1l7.4,2.2c2.2,0.6,3.8,1,4.6,1c0.6,0,1.1-0.1,1.6-0.3
				c0.5-0.2,0.8-0.4,1.1-0.7c0.1-0.1,0.2-0.4,0.2-0.9l1.1,0l0,5.4l-1.1,0c-0.3-0.6-0.7-1.1-1.4-1.5c-0.9-0.5-2.8-1.1-5.6-2l-9.6-2.8
				l-14.9,3.6c-2.4,0.6-3.8,0.9-4.1,1c-0.6,0.2-1.1,0.4-1.4,0.6s-0.5,0.4-0.6,0.8l-1.1,0l0-7l1.1,0l0,0.4c0,0.4,0.2,0.7,0.5,0.8
				s0.8,0.2,1.4,0.2c0.4,0,0.8,0,1.1-0.1l3.1-0.7l7.5-1.8l-5.1-1.5c-2.6-0.8-4.5-1.1-5.5-1.1c-0.5,0-1,0.1-1.5,0.2
				c-0.4,0.1-0.8,0.3-1.1,0.5c-0.3,0.2-0.4,0.5-0.4,0.9l-1.1,0l0-5.2l1.1,0c0,0.4,0.2,0.7,0.4,1c0.3,0.3,0.8,0.5,1.5,0.8
				c0.5,0.2,1.9,0.6,4.4,1.4L105.8,498z"/>
			<path d="M128,506.3l1.1,0l0,7.4l-1.1,0l0-0.5c0-0.4-0.2-0.7-0.6-1c-0.3-0.2-0.7-0.3-1.4-0.4c-0.5-0.1-1.7-0.1-3.7-0.1l-26.2,0
				c-2,0-3.3,0-3.8,0.1s-1,0.2-1.3,0.5c-0.4,0.2-0.6,0.5-0.6,0.9l0,0.5l-1.1,0l0-7.4l1.1,0l0,0.5c0,0.4,0.2,0.7,0.6,1
				c0.3,0.2,0.7,0.3,1.4,0.4c0.5,0.1,1.7,0.1,3.7,0.1l26.2,0c2,0,3.3,0,3.8-0.1c0.5-0.1,1-0.2,1.3-0.5c0.4-0.2,0.6-0.5,0.6-0.9
				L128,506.3z"/>
		</g>
		<path id="un_1_" d="M284.2,416.8l-0.6,0.9l-6.2-4l0.6-0.9l0.4,0.3c0.3,0.2,0.7,0.2,1.2,0c0.3-0.1,0.7-0.5,1.1-1
			c0.3-0.4,1-1.4,2.1-3l14.1-22c1.1-1.7,1.8-2.8,2-3.3c0.2-0.5,0.3-0.9,0.3-1.4c0-0.4-0.2-0.8-0.5-1l-0.4-0.3l0.6-0.9l6.2,4
			l-0.6,0.9l-0.4-0.3c-0.3-0.2-0.7-0.2-1.2,0c-0.3,0.1-0.7,0.5-1.1,1c-0.3,0.4-1,1.4-2.1,3l-14.1,22c-1.1,1.7-1.8,2.8-2,3.3
			c-0.2,0.5-0.3,0.9-0.3,1.4c0,0.4,0.2,0.8,0.5,1L284.2,416.8z"/>
		<g id="quatre_1_">
			<path d="M314.5,557.2l29.1,10.3c3.5,1.2,5.8,1.9,6.9,2c0.8,0.1,1.5-0.1,2.1-0.5l1.3,0.8c0,0-6.2,9.5-6.2,9.5
				c-0.3-0.2-1.2-0.8-1.2-0.8s0.2-0.3,0.4-0.6c0.5-1,0.3-2.3-0.3-3.1c-0.8-1.2-2.2-1.8-3.4-2.4c-6.9-3-14-5.5-21-8.2l3.4,4l8.9,9.3
				c2.5,2.7,4.4,4.4,5.7,5.2c0.7,0.5,1.4,0.7,2,0.7c0.6,0,1.2-0.4,1.8-1.1l1.3,0.8l-3.9,6l-1.3-0.8c0.2-0.7,0.2-1.4-0.2-2.2
				c-0.4-0.8-1.9-2.5-4.4-5.2l-21.4-22.7L314.5,557.2z"/>
			<path d="M356.7,563.2l0.9,0.6l-3.9,6.3l-0.9-0.6l0.3-0.4c0.2-0.3,0.2-0.7,0-1.2c-0.1-0.3-0.5-0.7-1-1.1c-0.4-0.3-1.4-1-3.1-2.1
				l-22.1-14c-1.7-1.1-2.8-1.7-3.3-1.9s-0.9-0.3-1.4-0.3c-0.4,0-0.8,0.2-1,0.5l-0.3,0.4l-0.9-0.6l3.9-6.3l0.9,0.6l-0.3,0.4
				c-0.2,0.3-0.2,0.7,0,1.2c0.1,0.3,0.5,0.7,1,1.1c0.4,0.3,1.4,1,3.1,2.1l22.1,14c1.7,1.1,2.8,1.7,3.3,1.9c0.5,0.2,0.9,0.3,1.4,0.3
				c0.4,0,0.8-0.2,1-0.5L356.7,563.2z"/>
		</g>
		<path id="cinq_1_" d="M282.7,591.7l21.9,21.7c2.6,2.6,4.4,4.2,5.4,4.8c0.7,0.4,1.4,0.6,2.1,0.4l0.8,1.3c0,0-9.7,5.9-9.7,5.9
			c-0.2-0.3-0.8-1.3-0.8-1.3s0.3-0.1,0.6-0.3c0.9-0.6,1.3-1.9,1.1-3c-0.2-1.4-1.2-2.5-2.1-3.6c-4.9-5.7-10.3-11-15.5-16.4l1.4,5
			l4.1,12.2c1.2,3.5,2.1,5.9,2.9,7.1c0.4,0.7,1,1.2,1.5,1.5c0.6,0.3,1.3,0.2,2-0.2l0.8,1.3l-6.1,3.7l-0.8-1.3c0.5-0.5,0.7-1.2,0.7-2
			c0-0.9-0.6-3.1-1.8-6.6l-9.7-29.7L282.7,591.7z"/>
		<g id="six_1_">
			<path d="M237,604.3l7.3,30c0.9,3.6,1.6,5.9,2.1,6.9c0.4,0.7,0.9,1.2,1.6,1.4l0,1.5c0,0-11.3,0-11.3,0c0-0.4,0-1.5,0-1.5
				s0.3,0,0.7,0c1.1-0.1,2.1-1,2.5-2c0.5-1.3,0.3-2.8,0.1-4.2c-1.2-7.4-3-14.7-4.6-22.1l-1.4,5L231,632c-0.8,3.6-1.2,6.1-1.2,7.6
				c0,0.9,0.2,1.6,0.5,2.1c0.3,0.5,1,0.8,1.8,0.9l0,1.5l-7.1,0l0-1.5c0.7-0.2,1.2-0.6,1.7-1.4c0.4-0.7,1.1-2.9,2-6.6l7.3-30.3
				L237,604.3z"/>
			<path d="M226.3,643v1.1h-7.4V643h0.5c0.4,0,0.7-0.2,1-0.6c0.2-0.3,0.3-0.7,0.4-1.4c0.1-0.5,0.1-1.7,0.1-3.7v-26.2
				c0-2,0-3.3-0.1-3.8c-0.1-0.5-0.2-1-0.5-1.3c-0.2-0.4-0.5-0.6-0.9-0.6h-0.5v-1.1h7.4v1.1h-0.5c-0.4,0-0.7,0.2-1,0.6
				c-0.2,0.3-0.3,0.7-0.4,1.4c-0.1,0.5-0.1,1.7-0.1,3.7v26.2c0,2,0,3.3,0.1,3.8c0.1,0.5,0.2,1,0.5,1.3c0.2,0.4,0.5,0.6,0.9,0.6
				H226.3z"/>
		</g>
		<g id="sept_1_">
			<path d="M188.9,595.7l-7.6,29.9c-0.9,3.6-1.4,5.9-1.4,7c0,0.8,0.2,1.5,0.7,2l-0.7,1.4c0,0-10-5.3-10-5.3c0.2-0.3,0.7-1.3,0.7-1.3
				s0.3,0.2,0.6,0.3c1,0.4,2.3,0.1,3.1-0.6c1.1-0.9,1.6-2.3,2-3.6c2.4-7.1,4.2-14.4,6.3-21.6l-3.6,3.8l-8.4,9.7
				c-2.4,2.8-4,4.8-4.7,6.1c-0.4,0.8-0.6,1.5-0.5,2.1s0.5,1.2,1.2,1.7l-0.7,1.4l-6.3-3.3l0.7-1.4c0.7,0.2,1.4,0,2.1-0.4
				c0.7-0.5,2.3-2.1,4.8-4.9l20.7-23.4L188.9,595.7z"/>
			<path d="M161,624.7l-0.5,0.9l-6.5-3.6l0.5-0.9l0.4,0.2c0.4,0.2,0.7,0.2,1.2-0.1c0.3-0.2,0.6-0.5,1-1c0.3-0.4,0.9-1.4,1.9-3.2
				l12.7-22.9c1-1.8,1.6-2.9,1.7-3.4s0.3-0.9,0.2-1.4s-0.2-0.8-0.5-1l-0.4-0.2l0.5-0.9l6.5,3.6l-0.5,0.9l-0.4-0.2
				c-0.4-0.2-0.7-0.2-1.2,0.1c-0.3,0.2-0.6,0.5-1.1,1c-0.3,0.4-0.9,1.4-1.9,3.2L162,618.7c-1,1.8-1.6,2.9-1.7,3.4
				c-0.2,0.5-0.3,0.9-0.2,1.4s0.2,0.8,0.5,1L161,624.7z"/>
			<path d="M155,621.4l-0.5,0.9l-6.5-3.6l0.5-0.9l0.4,0.2c0.4,0.2,0.7,0.2,1.2-0.1c0.3-0.2,0.6-0.5,1-1c0.3-0.4,0.9-1.4,1.9-3.2
				l12.7-22.9c1-1.8,1.6-2.9,1.7-3.4s0.3-0.9,0.2-1.4s-0.2-0.8-0.5-1l-0.4-0.2l0.5-0.9l6.5,3.6l-0.5,0.9l-0.4-0.2
				c-0.4-0.2-0.7-0.2-1.2,0.1c-0.3,0.2-0.6,0.5-1.1,1c-0.3,0.4-0.9,1.4-1.9,3.2l-12.7,22.9c-1,1.8-1.6,2.9-1.7,3.4
				c-0.2,0.5-0.3,0.9-0.2,1.4s0.2,0.8,0.5,1L155,621.4z"/>
		</g>
		<g id="huit_1_">
			<path d="M152.9,567.8l-21.6,22.1c-2.6,2.7-4.2,4.5-4.7,5.4c-0.4,0.7-0.6,1.4-0.4,2.1l-1.3,0.8c0,0-6-9.6-6-9.6
				c0.3-0.2,1.3-0.8,1.3-0.8s0.1,0.3,0.4,0.6c0.7,0.9,1.9,1.2,3,1c1.4-0.3,2.5-1.2,3.6-2.1c5.6-4.9,10.9-10.3,16.3-15.6l-5,1.4
				l-12.2,4.2c-3.5,1.2-5.8,2.2-7.1,3c-0.7,0.5-1.2,1-1.5,1.5c-0.3,0.6-0.2,1.3,0.2,2l-1.3,0.8l-3.8-6.1l1.3-0.8
				c0.5,0.5,1.2,0.7,2,0.7s3.1-0.6,6.6-1.8l29.6-9.8L152.9,567.8z"/>
			<path d="M142.1,552.3l0.9-0.6l3.9,6.3l-0.9,0.6l-0.2-0.4c-0.2-0.3-0.6-0.5-1-0.5c-0.3,0-0.8,0.1-1.4,0.4
				c-0.4,0.2-1.5,0.8-3.2,1.8l-22.2,13.8c-1.7,1.1-2.8,1.8-3.2,2.1s-0.7,0.7-0.9,1.1c-0.2,0.4-0.2,0.8,0,1.1l0.2,0.4l-0.9,0.6
				l-3.9-6.3l0.9-0.6l0.2,0.4c0.2,0.3,0.6,0.5,1,0.5c0.3,0,0.8-0.1,1.4-0.4c0.4-0.2,1.5-0.8,3.2-1.8l22.2-13.8
				c1.7-1.1,2.8-1.8,3.2-2.1c0.4-0.3,0.7-0.7,0.9-1.1c0.2-0.4,0.2-0.8,0-1.1L142.1,552.3z"/>
			<path d="M138.7,546.6l0.9-0.6l3.8,6.3l-0.9,0.6l-0.2-0.4c-0.2-0.4-0.6-0.5-1-0.5c-0.3,0-0.8,0.1-1.4,0.4
				c-0.4,0.2-1.5,0.8-3.2,1.8l-22.5,13.4c-1.7,1-2.8,1.7-3.2,2.1c-0.4,0.3-0.7,0.7-0.9,1.1c-0.2,0.4-0.2,0.8,0,1.1l0.2,0.4l-0.9,0.6
				l-3.8-6.3l0.9-0.6l0.2,0.4c0.2,0.4,0.6,0.5,1,0.5c0.3,0,0.8-0.1,1.4-0.4c0.4-0.2,1.5-0.8,3.2-1.8l22.5-13.4
				c1.7-1,2.8-1.7,3.2-2.1c0.4-0.3,0.7-0.7,0.9-1.1s0.2-0.8,0-1.1L138.7,546.6z"/>
			<path d="M134.9,540.4l0.9-0.6l3.8,6.3l-0.9,0.6l-0.2-0.4c-0.2-0.4-0.6-0.5-1-0.5c-0.3,0-0.8,0.1-1.4,0.4
				c-0.4,0.2-1.5,0.8-3.2,1.8l-22.5,13.4c-1.7,1-2.8,1.7-3.2,2.1c-0.4,0.3-0.7,0.7-0.9,1.1c-0.2,0.4-0.2,0.8,0,1.1l0.2,0.4l-0.9,0.6
				l-3.8-6.3l0.9-0.6l0.2,0.4c0.2,0.4,0.6,0.5,1,0.5c0.3,0,0.8-0.1,1.4-0.4c0.4-0.2,1.5-0.8,3.2-1.8l22.5-13.4
				c1.7-1,2.8-1.7,3.2-2.1c0.4-0.3,0.7-0.7,0.9-1.1c0.2-0.4,0.2-0.8,0-1.1L134.9,540.4z"/>
		</g>
		<path id="dix_1_" d="M123.9,441.7l16.2,4.1c2.7,0.7,4.4,1,5,1.1c0.6,0,1.1-0.1,1.4-0.4l1,0.5l-3.2,6.1l-1-0.5
			c0.2-0.5,0.1-1-0.1-1.3c-0.2-0.3-0.6-0.6-1-0.8c-0.3-0.2-0.6-0.3-0.9-0.4c-0.6-0.2-1.6-0.5-3.2-0.9l-8.6-2.2l5.6,5.4
			c1.7,1.6,2.9,2.6,3.6,3c0.5,0.3,1,0.4,1.5,0.5c0.5,0.1,0.9,0,1.3-0.2c0.2-0.1,0.4-0.3,0.6-0.7l1,0.5l-2.5,4.8l-1-0.5
			c0.1-0.7-0.1-1.3-0.6-1.9c-0.6-0.8-1.9-2.3-4.1-4.4l-7.2-7l-14.8-3.8c-2.4-0.6-3.8-1-4.1-1c-0.7-0.1-1.2-0.2-1.5-0.2
			c-0.3,0-0.6,0.2-0.9,0.4l-1-0.5l3.3-6.2l1,0.5l-0.2,0.3c-0.2,0.4-0.2,0.7,0.1,1c0.2,0.3,0.6,0.6,1.1,0.8c0.4,0.2,0.7,0.4,1,0.5
			l3,0.8l7.5,2l-3.8-3.7c-2-1.9-3.4-3.1-4.4-3.6c-0.5-0.2-0.9-0.4-1.4-0.5c-0.4-0.1-0.8-0.1-1.2-0.1c-0.3,0.1-0.6,0.3-0.8,0.7
			l-1-0.5l2.4-4.6l1,0.5c-0.2,0.4-0.2,0.7-0.1,1.1c0.1,0.3,0.4,0.8,0.9,1.4c0.3,0.4,1.4,1.5,3.2,3.2L123.9,441.7z"/>
		<g id="douze_1_">
			<path d="M223.2,380.6l3.9,16.3c0.6,2.7,1.1,4.3,1.4,4.9c0.3,0.6,0.6,0.9,1,1v1.1h-6.9v-1.1c0.5-0.1,0.9-0.4,1.1-0.7
				s0.2-0.8,0.2-1.3c0-0.4,0-0.7-0.1-0.9c-0.1-0.6-0.3-1.7-0.7-3.3L221,388l-2.2,7.4c-0.6,2.2-1,3.8-1,4.6c0,0.6,0.1,1.1,0.3,1.6
				s0.4,0.8,0.7,1.1c0.1,0.1,0.4,0.2,0.9,0.2v1.1h-5.4v-1.1c0.6-0.3,1.1-0.7,1.5-1.4c0.5-0.9,1.1-2.8,2-5.6l2.8-9.6l-3.6-14.9
				c-0.6-2.4-0.9-3.8-1-4.1c-0.2-0.6-0.4-1.1-0.6-1.4c-0.2-0.3-0.4-0.5-0.8-0.6v-1.1h7v1.1h-0.4c-0.4,0-0.7,0.2-0.8,0.5
				c-0.2,0.4-0.2,0.8-0.2,1.4c0,0.4,0,0.8,0.1,1.1l0.7,3.1l1.8,7.5l1.5-5.1c0.8-2.6,1.1-4.5,1.1-5.5c0-0.5-0.1-1-0.2-1.5
				c-0.1-0.4-0.3-0.8-0.5-1.1c-0.2-0.3-0.5-0.4-0.9-0.4v-1.1h5.2v1.1c-0.4,0-0.7,0.2-1,0.4c-0.3,0.3-0.5,0.8-0.8,1.5
				c-0.2,0.5-0.6,1.9-1.4,4.4L223.2,380.6z"/>
			<path d="M236.2,402.8v1.1h-7.4v-1.1h0.5c0.4,0,0.7-0.2,1-0.6c0.2-0.3,0.3-0.7,0.4-1.4c0.1-0.5,0.1-1.7,0.1-3.7v-26.2
				c0-2,0-3.3-0.1-3.8c-0.1-0.5-0.2-1-0.5-1.3c-0.2-0.4-0.5-0.6-0.9-0.6h-0.5v-1.1h7.4v1.1h-0.5c-0.4,0-0.7,0.2-1,0.6
				c-0.2,0.3-0.3,0.7-0.4,1.4c-0.1,0.5-0.1,1.7-0.1,3.7v26.2c0,2,0,3.3,0.1,3.8c0.1,0.5,0.2,1,0.5,1.3s0.5,0.6,0.9,0.6H236.2z"/>
			<path d="M243.2,402.8v1.1h-7.4v-1.1h0.5c0.4,0,0.7-0.2,1-0.6c0.2-0.3,0.3-0.7,0.4-1.4c0.1-0.5,0.1-1.7,0.1-3.7v-26.2
				c0-2,0-3.3-0.1-3.8s-0.2-1-0.5-1.3c-0.2-0.4-0.5-0.6-0.9-0.6h-0.5v-1.1h7.4v1.1h-0.5c-0.4,0-0.7,0.2-1,0.6
				c-0.2,0.3-0.3,0.7-0.4,1.4c-0.1,0.5-0.1,1.7-0.1,3.7v26.2c0,2,0,3.3,0.1,3.8c0.1,0.5,0.2,1,0.5,1.3c0.2,0.4,0.5,0.6,0.9,0.6
				H243.2z"/>
		</g>
	</g>
	<g id="aiguillles">
		<polygon id="grande_4_" class="st1" points="230.1,505.8 221.4,486.1 230.1,362.6 239,485.1 		"/>
		<polygon id="petite_2_" class="st1" points="230.2,505.7 249.9,497 339.1,505.5 250.9,514.6 		"/>
	</g>
</g>
<g id="fond_sombre">
	<g id="Calque_19">
	</g>
	<g id="Calque_20">
	</g>
	<g id="horloge_1_">
	</g>
	<g id="heures_1_">
		<g id="deux_1_">
		</g>
		<g id="trois_1_">
		</g>
		<g id="neuf_1_">
		</g>
		<g id="onze_1_">
		</g>
	</g>
	<g id="aiguilles">
	</g>
</g>
</svg>
